<mxfile host="app.diagrams.net" agent="Mozilla/5.0 (Macintosh; Intel Mac OS X 10_15_7) AppleWebKit/605.1.15 (KHTML, like Gecko) Version/17.5 Safari/605.1.15" version="24.7.10">
  <diagram name="Page-1" id="Fq4x61T2JY9yc7haTO9g">
    <mxGraphModel dx="1122" dy="672" grid="1" gridSize="10" guides="1" tooltips="1" connect="1" arrows="1" fold="1" page="1" pageScale="1" pageWidth="827" pageHeight="1169" math="0" shadow="0">
      <root>
        <mxCell id="0" />
        <mxCell id="1" parent="0" />
        <mxCell id="fkO48MSunZ0SJcQ6oXgh-1" value="Знайти X" style="whiteSpace=wrap;html=1;align=center;" vertex="1" parent="1">
          <mxGeometry x="200" y="40" width="120" height="80" as="geometry" />
        </mxCell>
        <mxCell id="fkO48MSunZ0SJcQ6oXgh-2" value="Знайти x1,2" style="whiteSpace=wrap;html=1;align=center;" vertex="1" parent="1">
          <mxGeometry x="430" y="240" width="150" height="110" as="geometry" />
        </mxCell>
        <mxCell id="fkO48MSunZ0SJcQ6oXgh-3" value="" style="endArrow=classic;html=1;rounded=0;entryX=-0.013;entryY=0.191;entryDx=0;entryDy=0;entryPerimeter=0;" edge="1" parent="1" target="fkO48MSunZ0SJcQ6oXgh-2">
          <mxGeometry width="50" height="50" relative="1" as="geometry">
            <mxPoint x="30" y="260" as="sourcePoint" />
            <mxPoint x="165" y="190" as="targetPoint" />
          </mxGeometry>
        </mxCell>
        <mxCell id="fkO48MSunZ0SJcQ6oXgh-4" value="" style="endArrow=classic;html=1;rounded=0;" edge="1" parent="1">
          <mxGeometry width="50" height="50" relative="1" as="geometry">
            <mxPoint x="32" y="330" as="sourcePoint" />
            <mxPoint x="430" y="331" as="targetPoint" />
          </mxGeometry>
        </mxCell>
        <mxCell id="fkO48MSunZ0SJcQ6oXgh-5" value="D" style="text;html=1;align=center;verticalAlign=middle;whiteSpace=wrap;rounded=0;" vertex="1" parent="1">
          <mxGeometry x="10" y="300" width="60" height="30" as="geometry" />
        </mxCell>
        <mxCell id="fkO48MSunZ0SJcQ6oXgh-6" value="C" style="text;html=1;align=center;verticalAlign=middle;whiteSpace=wrap;rounded=0;" vertex="1" parent="1">
          <mxGeometry x="10" y="230" width="60" height="30" as="geometry" />
        </mxCell>
        <mxCell id="fkO48MSunZ0SJcQ6oXgh-7" value="" style="endArrow=classic;html=1;rounded=0;entryX=0;entryY=0.25;entryDx=0;entryDy=0;" edge="1" parent="1" target="fkO48MSunZ0SJcQ6oXgh-1">
          <mxGeometry width="50" height="50" relative="1" as="geometry">
            <mxPoint x="30" y="60" as="sourcePoint" />
            <mxPoint x="120" y="55" as="targetPoint" />
          </mxGeometry>
        </mxCell>
        <mxCell id="fkO48MSunZ0SJcQ6oXgh-8" value="n" style="text;html=1;align=center;verticalAlign=middle;whiteSpace=wrap;rounded=0;" vertex="1" parent="1">
          <mxGeometry x="10" y="30" width="60" height="30" as="geometry" />
        </mxCell>
        <mxCell id="fkO48MSunZ0SJcQ6oXgh-9" value="" style="endArrow=classic;html=1;rounded=0;" edge="1" parent="1">
          <mxGeometry width="50" height="50" relative="1" as="geometry">
            <mxPoint x="320" y="60" as="sourcePoint" />
            <mxPoint x="670" y="60" as="targetPoint" />
          </mxGeometry>
        </mxCell>
        <mxCell id="fkO48MSunZ0SJcQ6oXgh-11" value="&lt;span style=&quot;caret-color: rgb(0, 0, 0); color: rgb(0, 0, 0); font-family: Helvetica; font-size: 12px; font-style: normal; font-variant-caps: normal; font-weight: 400; letter-spacing: normal; orphans: auto; text-align: center; text-indent: 0px; text-transform: none; white-space: normal; widows: auto; word-spacing: 0px; -webkit-text-stroke-width: 0px; background-color: rgb(251, 251, 251); text-decoration: none; display: inline !important; float: none;&quot;&gt;S, X(x1,x2)&lt;/span&gt;" style="text;whiteSpace=wrap;html=1;" vertex="1" parent="1">
          <mxGeometry x="620" y="30" width="90" height="40" as="geometry" />
        </mxCell>
        <mxCell id="fkO48MSunZ0SJcQ6oXgh-14" value="" style="endArrow=none;html=1;rounded=0;exitX=1.018;exitY=0.415;exitDx=0;exitDy=0;exitPerimeter=0;" edge="1" parent="1" source="fkO48MSunZ0SJcQ6oXgh-2">
          <mxGeometry width="50" height="50" relative="1" as="geometry">
            <mxPoint x="580" y="230" as="sourcePoint" />
            <mxPoint x="640" y="60" as="targetPoint" />
            <Array as="points">
              <mxPoint x="640" y="286" />
            </Array>
          </mxGeometry>
        </mxCell>
        <mxCell id="fkO48MSunZ0SJcQ6oXgh-15" value="x1,x2" style="text;html=1;align=center;verticalAlign=middle;whiteSpace=wrap;rounded=0;" vertex="1" parent="1">
          <mxGeometry x="640" y="170" width="60" height="30" as="geometry" />
        </mxCell>
        <mxCell id="fkO48MSunZ0SJcQ6oXgh-16" value="" style="endArrow=classic;html=1;rounded=0;entryX=0.5;entryY=1;entryDx=0;entryDy=0;" edge="1" parent="1" target="fkO48MSunZ0SJcQ6oXgh-1">
          <mxGeometry width="50" height="50" relative="1" as="geometry">
            <mxPoint x="260" y="450" as="sourcePoint" />
            <mxPoint x="310" y="370" as="targetPoint" />
          </mxGeometry>
        </mxCell>
        <mxCell id="fkO48MSunZ0SJcQ6oXgh-17" value="" style="endArrow=classic;html=1;rounded=1;entryX=0.5;entryY=1;entryDx=0;entryDy=0;curved=0;" edge="1" parent="1" target="fkO48MSunZ0SJcQ6oXgh-2">
          <mxGeometry width="50" height="50" relative="1" as="geometry">
            <mxPoint x="260" y="430" as="sourcePoint" />
            <mxPoint x="460" y="390" as="targetPoint" />
            <Array as="points">
              <mxPoint x="505" y="430" />
            </Array>
          </mxGeometry>
        </mxCell>
        <mxCell id="fkO48MSunZ0SJcQ6oXgh-18" value="процесор" style="text;html=1;align=center;verticalAlign=middle;whiteSpace=wrap;rounded=0;" vertex="1" parent="1">
          <mxGeometry x="260" y="430" width="60" height="30" as="geometry" />
        </mxCell>
        <mxCell id="fkO48MSunZ0SJcQ6oXgh-19" value="" style="endArrow=classic;html=1;rounded=1;entryX=0;entryY=0.5;entryDx=0;entryDy=0;curved=0;" edge="1" parent="1" target="fkO48MSunZ0SJcQ6oXgh-2">
          <mxGeometry width="50" height="50" relative="1" as="geometry">
            <mxPoint x="90" y="60" as="sourcePoint" />
            <mxPoint x="460" y="310" as="targetPoint" />
            <Array as="points">
              <mxPoint x="90" y="295" />
            </Array>
          </mxGeometry>
        </mxCell>
        <mxCell id="fkO48MSunZ0SJcQ6oXgh-20" value="" style="endArrow=classic;html=1;rounded=1;entryX=-0.026;entryY=0.659;entryDx=0;entryDy=0;entryPerimeter=0;curved=0;" edge="1" parent="1" target="fkO48MSunZ0SJcQ6oXgh-1">
          <mxGeometry width="50" height="50" relative="1" as="geometry">
            <mxPoint x="150" y="250" as="sourcePoint" />
            <mxPoint x="160" y="140" as="targetPoint" />
            <Array as="points">
              <mxPoint x="150" y="93" />
            </Array>
          </mxGeometry>
        </mxCell>
        <mxCell id="fkO48MSunZ0SJcQ6oXgh-21" value="b,c" style="text;html=1;align=center;verticalAlign=middle;whiteSpace=wrap;rounded=0;" vertex="1" parent="1">
          <mxGeometry x="150" y="150" width="60" height="30" as="geometry" />
        </mxCell>
        <mxCell id="fkO48MSunZ0SJcQ6oXgh-22" value="" style="endArrow=classic;startArrow=classic;html=1;rounded=1;entryX=0.5;entryY=0;entryDx=0;entryDy=0;exitX=0.415;exitY=-0.042;exitDx=0;exitDy=0;exitPerimeter=0;curved=0;" edge="1" parent="1">
          <mxGeometry width="50" height="50" relative="1" as="geometry">
            <mxPoint x="229.99999999999994" y="36.639999999999986" as="sourcePoint" />
            <mxPoint x="485.2" y="240" as="targetPoint" />
            <Array as="points">
              <mxPoint x="230.2" y="10" />
              <mxPoint x="485" y="10" />
            </Array>
          </mxGeometry>
        </mxCell>
      </root>
    </mxGraphModel>
  </diagram>
</mxfile>
